{
  "accessors": [
    {
      "bufferView": 2,
      "componentType": 5126,
      "count": 527,
      "max": [
        6.41713809967041,
        9.819430351257324,
        11.976447105407715
      ],
      "min": [
        -6.41713809967041,
        -1.0,
        -8.16806697845459
      ],
      "type": "VEC3"
    },
    {
      "bufferView": 2,
      "byteOffset": 6324,
      "componentType": 5126,
      "count": 527,
      "max": [
        1.0,
        1.0,
        1.0
      ],
      "min": [
        -1.0,
        -0.9872556328773499,
        -1.0
      ],
      "type": "VEC3"
    },
    {
      "bufferView": 1,
      "componentType": 5126,
      "count": 527,
      "max": [
        3.058122158050537,
        3.0215656757354736
      ],
      "min": [
        -2.0691094398498535,
        -1.8804360628128052
      ],
      "type": "VEC2"
    },
    {
      "bufferView": 0,
      "componentType": 5125,
      "count": 777,
      "type": "SCALAR"
    },
    {
      "bufferView": 2,
      "byteOffset": 12648,
      "componentType": 5126,
      "count": 1104,
      "max": [
        6.913898944854736,
        9.114107131958008,
        12.047370910644531
      ],
      "min": [
        -6.946430206298828,
        -1.0003290176391602,
        -9.032758712768555
      ],
      "type": "VEC3"
    },
    {
      "bufferView": 2,
      "byteOffset": 25896,
      "componentType": 5126,
      "count": 1104,
      "max": [
        0.999198317527771,
        1.0,
        0.9990602135658264
      ],
      "min": [
        -0.9991983771324158,
        -0.9999997019767761,
        -0.9985410571098328
      ],
      "type": "VEC3"
    },
    {
      "bufferView": 1,
      "byteOffset": 4216,
      "componentType": 5126,
      "count": 1104,
      "max": [
        3.6686277389526367,
        2.393497943878174
      ],
      "min": [
        -1.021719217300415,
        -1.0594793558120728
      ],
      "type": "VEC2"
    },
    {
      "bufferView": 0,
      "byteOffset": 3108,
      "componentType": 5125,
      "count": 1632,
      "type": "SCALAR"
    },
    {
      "bufferView": 2,
      "byteOffset": 39144,
      "componentType": 5126,
      "count": 81,
      "max": [
        5.730234146118164,
        9.109559059143066,
        11.64703369140625
      ],
      "min": [
        -5.730234146118164,
        -0.78998863697052,
        -7.657598972320557
      ],
      "type": "VEC3"
    },
    {
      "bufferView": 2,
      "byteOffset": 40116,
      "componentType": 5126,
      "count": 81,
      "max": [
        1.0,
        1.0,
        0.03388103470206261
      ],
      "min": [
        -1.0,
        0.0,
        -0.1700896918773651
      ],
      "type": "VEC3"
    },
    {
      "bufferView": 1,
      "byteOffset": 13048,
      "componentType": 5126,
      "count": 81,
      "max": [
        1.73509681224823,
        2.297090768814087
      ],
      "min": [
        -0.9787089824676514,
        -1.297090768814087
      ],
      "type": "VEC2"
    },
    {
      "bufferView": 0,
      "byteOffset": 9636,
      "componentType": 5125,
      "count": 135,
      "type": "SCALAR"
    },
    {
      "bufferView": 2,
      "byteOffset": 41088,
      "componentType": 5126,
      "count": 183,
      "max": [
        6.417139053344727,
        8.8924560546875,
        8.575544357299805
      ],
      "min": [
        -6.41713809967041,
        -1.0,
        -8.575544357299805
      ],
      "type": "VEC3"
    },
    {
      "bufferView": 2,
      "byteOffset": 43284,
      "componentType": 5126,
      "count": 183,
      "max": [
        0.9998891353607178,
        1.0,
        1.0
      ],
      "min": [
        -0.9999419450759888,
        -0.21890884637832642,
        -0.9997453093528748
      ],
      "type": "VEC3"
    },
    {
      "bufferView": 1,
      "byteOffset": 13696,
      "componentType": 5126,
      "count": 183,
      "max": [
        3.305277109146118,
        1.306983232498169
      ],
      "min": [
        -2.9608774185180664,
        -1.9661575555801392
      ],
      "type": "VEC2"
    },
    {
      "bufferView": 0,
      "byteOffset": 10176,
      "componentType": 5125,
      "count": 273,
      "type": "SCALAR"
    },
    {
      "bufferView": 2,
      "byteOffset": 45480,
      "componentType": 5126,
      "count": 196,
      "max": [
        3.4507944583892822,
        3.708498001098633,
        0.3274063766002655
      ],
      "min": [
        -0.31573712825775146,
        -0.1353277862071991,
        -0.32740727066993713
      ],
      "type": "VEC3"
    },
    {
      "bufferView": 2,
      "byteOffset": 47832,
      "componentType": 5126,
      "count": 196,
      "max": [
        1.0,
        0.9774038195610046,
        1.0
      ],
      "min": [
        -1.0,
        -0.9845971465110779,
        -1.0
      ],
      "type": "VEC3"
    },
    {
      "bufferView": 1,
      "byteOffset": 15160,
      "componentType": 5126,
      "count": 196,
      "max": [
        0.8773602247238159,
        0.8029301166534424
      ],
      "min": [
        0.12263977527618408,
        0.03272178769111633
      ],
      "type": "VEC2"
    },
    {
      "bufferView": 0,
      "byteOffset": 11268,
      "componentType": 5125,
      "count": 342,
      "type": "SCALAR"
    },
    {
      "bufferView": 2,
      "byteOffset": 50184,
      "componentType": 5126,
      "count": 260,
      "max": [
        1.9080097675323486,
        2.4703941345214844,
        0.15759795904159546
      ],
      "min": [
        -0.7031071186065674,
        -0.7679191827774048,
        -0.1575985699892044
      ],
      "type": "VEC3"
    },
    {
      "bufferView": 2,
      "byteOffset": 53304,
      "componentType": 5126,
      "count": 260,
      "max": [
        1.0,
        0.9905899167060852,
        1.0
      ],
      "min": [
        -1.0,
        -0.9947349429130554,
        -1.0
      ],
      "type": "VEC3"
    },
    {
      "bufferView": 1,
      "byteOffset": 16728,
      "componentType": 5126,
      "count": 260,
      "max": [
        0.8452234268188477,
        0.8360734581947327
      ],
      "min": [
        0.15477678179740906,
        0.09250617027282715
      ],
      "type": "VEC2"
    },
    {
      "bufferView": 0,
      "byteOffset": 12636,
      "componentType": 5125,
      "count": 390,
      "type": "SCALAR"
    },
    {
      "bufferView": 2,
      "byteOffset": 56424,
      "componentType": 5126,
      "count": 320,
      "max": [
        32.32497787475586,
        12.949522018432617,
        11.173972129821777
      ],
      "min": [
        -1.1508032083511353,
        -16.04877281188965,
        -3.262573719024658
      ],
      "type": "VEC3"
    },
    {
      "bufferView": 2,
      "byteOffset": 60264,
      "componentType": 5126,
      "count": 320,
      "max": [
        0.9999024271965027,
        -0.011545825749635696,
        0.9998012185096741
      ],
      "min": [
        -0.9999024868011475,
        -0.016059046611189842,
        -0.9998012185096741
      ],
      "type": "VEC3"
    },
    {
      "bufferView": 1,
      "byteOffset": 18808,
      "componentType": 5126,
      "count": 320,
      "max": [
        1.3163673877716064,
        1.7174508571624756
      ],
      "min": [
        -0.39313995838165283,
        -0.7174508571624756
      ],
      "type": "VEC2"
    },
    {
      "bufferView": 0,
      "byteOffset": 14196,
      "componentType": 5125,
      "count": 480,
      "type": "SCALAR"
    },
    {
      "bufferView": 2,
      "byteOffset": 64104,
      "componentType": 5126,
      "count": 1502,
      "max": [
        12.584806442260742,
        8.845114707946777,
        1.964611530303955
      ],
      "min": [
        -0.04442945122718811,
        -0.28963086009025574,
        -14.894550323486328
      ],
      "type": "VEC3"
    },
    {
      "bufferView": 2,
      "byteOffset": 82128,
      "componentType": 5126,
      "count": 1502,
      "max": [
        1.0,
        1.0,
        1.0
      ],
      "min": [
        -0.9999051690101624,
        -0.9883220791816711,
        -1.0
      ],
      "type": "VEC3"
    },
    {
      "bufferView": 1,
      "byteOffset": 21368,
      "componentType": 5126,
      "count": 1502,
      "max": [
        0.7435293197631836,
        0.995825469493866
      ],
      "min": [
        0.26768580079078674,
        0.5124523043632507
      ],
      "type": "VEC2"
    },
    {
      "bufferView": 0,
      "byteOffset": 16116,
      "componentType": 5125,
      "count": 2514,
      "type": "SCALAR"
    },
    {
      "bufferView": 2,
      "byteOffset": 100152,
      "componentType": 5126,
      "count": 48,
      "max": [
        1.5174480676651,
        0.04524991661310196,
        1.1373730897903442
      ],
      "min": [
        -1.557244896888733,
        -0.19104531407356262,
        -1.0076565742492676
      ],
      "type": "VEC3"
    },
    {
      "bufferView": 2,
      "byteOffset": 100728,
      "componentType": 5126,
      "count": 48,
      "max": [
        0.18689949810504913,
        0.9961103796958923,
        0.18017475306987762
      ],
      "min": [
        -0.15880899131298065,
        0.9795845746994019,
        -0.1654646098613739
      ],
      "type": "VEC3"
    },
    {
      "bufferView": 1,
      "byteOffset": 33384,
      "componentType": 5126,
      "count": 48,
      "max": [
        1.0,
        1.0
      ],
      "min": [
        0.0,
        0.0
      ],
      "type": "VEC2"
    },
    {
      "bufferView": 0,
      "byteOffset": 26172,
      "componentType": 5125,
      "count": 72,
      "type": "SCALAR"
    }
  ],
  "asset": {
    "extras": {
      "author": "Avgust9 (https://sketchfab.com/Avgust9)",
      "license": "CC-BY-4.0 (http://creativecommons.org/licenses/by/4.0/)",
      "source": "https://sketchfab.com/3d-models/desert-house-dfd9dd93d3ed4e8eae1b1b4c2659857e",
      "title": "Desert House"
    },
    "generator": "Sketchfab-12.65.0",
    "version": "2.0"
  },
  "bufferViews": [
    {
      "buffer": 0,
      "byteLength": 26460,
      "name": "floatBufferViews",
      "target": 34963
    },
    {
      "buffer": 0,
      "byteLength": 33768,
      "byteOffset": 26460,
      "byteStride": 8,
      "name": "floatBufferViews",
      "target": 34962
    },
    {
      "buffer": 0,
      "byteLength": 101304,
      "byteOffset": 60228,
      "byteStride": 12,
      "name": "floatBufferViews",
      "target": 34962
    }
  ],
  "buffers": [
    {
      "byteLength": 161532,
      "uri": "scene.bin"
    }
  ],
  "extensionsUsed": [
    "KHR_materials_unlit"
  ],
  "images": [
    {
      "uri": "textures/Brick1_baseColor.jpeg"
    },
    {
      "uri": "textures/Brick2_baseColor.jpeg"
    },
    {
      "uri": "textures/Brick5_baseColor.jpeg"
    },
    {
      "uri": "textures/Window_baseColor.jpeg"
    },
    {
      "uri": "textures/Wood_baseColor.jpeg"
    },
    {
      "uri": "textures/Dach_baseColor.jpeg"
    }
  ],
  "materials": [
    {
      "doubleSided": true,
      "extensions": {
        "KHR_materials_unlit": {}
      },
      "name": "Brick1",
      "pbrMetallicRoughness": {
        "baseColorTexture": {
          "index": 0
        },
        "metallicFactor": 0.0
      }
    },
    {
      "doubleSided": true,
      "extensions": {
        "KHR_materials_unlit": {}
      },
      "name": "Brick2",
      "pbrMetallicRoughness": {
        "baseColorTexture": {
          "index": 1
        },
        "metallicFactor": 0.0
      }
    },
    {
      "doubleSided": true,
      "extensions": {
        "KHR_materials_unlit": {}
      },
      "name": "Brick5",
      "pbrMetallicRoughness": {
        "baseColorTexture": {
          "index": 2
        },
        "metallicFactor": 0.0
      }
    },
    {
      "doubleSided": true,
      "extensions": {
        "KHR_materials_unlit": {}
      },
      "name": "Window",
      "pbrMetallicRoughness": {
        "baseColorTexture": {
          "index": 3
        },
        "metallicFactor": 0.0
      }
    },
    {
      "doubleSided": true,
      "extensions": {
        "KHR_materials_unlit": {}
      },
      "name": "Wood",
      "pbrMetallicRoughness": {
        "baseColorTexture": {
          "index": 4
        },
        "metallicFactor": 0.0
      }
    },
    {
      "doubleSided": true,
      "extensions": {
        "KHR_materials_unlit": {}
      },
      "name": "Dach",
      "pbrMetallicRoughness": {
        "baseColorTexture": {
          "index": 5
        },
        "metallicFactor": 0.0
      }
    }
  ],
  "meshes": [
    {
      "name": "Object_0",
      "primitives": [
        {
          "attributes": {
            "NORMAL": 1,
            "POSITION": 0,
            "TEXCOORD_0": 2
          },
          "indices": 3,
          "material": 0,
          "mode": 4
        }
      ]
    },
    {
      "name": "Object_1",
      "primitives": [
        {
          "attributes": {
            "NORMAL": 5,
            "POSITION": 4,
            "TEXCOORD_0": 6
          },
          "indices": 7,
          "material": 1,
          "mode": 4
        }
      ]
    },
    {
      "name": "Object_2",
      "primitives": [
        {
          "attributes": {
            "NORMAL": 9,
            "POSITION": 8,
            "TEXCOORD_0": 10
          },
          "indices": 11,
          "material": 2,
          "mode": 4
        }
      ]
    },
    {
      "name": "Object_3",
      "primitives": [
        {
          "attributes": {
            "NORMAL": 13,
            "POSITION": 12,
            "TEXCOORD_0": 14
          },
          "indices": 15,
          "material": 3,
          "mode": 4
        }
      ]
    },
    {
      "name": "Object_4",
      "primitives": [
        {
          "attributes": {
            "NORMAL": 17,
            "POSITION": 16,
            "TEXCOORD_0": 18
          },
          "indices": 19,
          "material": 1,
          "mode": 4
        }
      ]
    },
    {
      "name": "Object_5",
      "primitives": [
        {
          "attributes": {
            "NORMAL": 21,
            "POSITION": 20,
            "TEXCOORD_0": 22
          },
          "indices": 23,
          "material": 1,
          "mode": 4
        }
      ]
    },
    {
      "name": "Object_6",
      "primitives": [
        {
          "attributes": {
            "NORMAL": 25,
            "POSITION": 24,
            "TEXCOORD_0": 26
          },
          "indices": 27,
          "material": 1,
          "mode": 4
        }
      ]
    },
    {
      "name": "Object_7",
      "primitives": [
        {
          "attributes": {
            "NORMAL": 29,
            "POSITION": 28,
            "TEXCOORD_0": 30
          },
          "indices": 31,
          "material": 4,
          "mode": 4
        }
      ]
    },
    {
      "name": "Object_8",
      "primitives": [
        {
          "attributes": {
            "NORMAL": 33,
            "POSITION": 32,
            "TEXCOORD_0": 34
          },
          "indices": 35,
          "material": 5,
          "mode": 4
        }
      ]
    }
  ],
  "nodes": [
    {
      "children": [
        1
      ],
      "matrix": [
        1.0,
        0.0,
        0.0,
        0.0,
        0.0,
        2.220446049250313e-16,
        -1.0,
        0.0,
        0.0,
        1.0,
        2.220446049250313e-16,
        0.0,
        0.0,
        0.0,
        0.0,
        1.0
      ],
      "name": "Sketchfab_model"
    },
    {
      "children": [
        2
      ],
      "name": "root"
    },
    {
      "children": [
        3,
        8,
        10,
        12,
        14,
        16
      ],
      "matrix": [
        1.0,
        0.0,
        0.0,
        0.0,
        0.0,
        2.220446049250313e-16,
        1.0,
        0.0,
        0.0,
        -1.0,
        2.220446049250313e-16,
        0.0,
        0.0,
        0.0,
        0.0,
        1.0
      ],
      "name": "GLTF_SceneRootNode"
    },
    {
      "children": [
        4,
        5,
        6,
        7
      ],
      "matrix": [
        1.0,
        0.0,
        0.0,
        0.0,
        0.0,
        1.0,
        0.0,
        0.0,
        0.0,
        0.0,
        1.0,
        0.0,
        15.233866691589355,
        0.799557089805603,
        -7.184511184692383,
        1.0
      ],
      "name": "House1_0"
    },
    {
      "mesh": 0,
      "name": "Object_4"
    },
    {
      "mesh": 1,
      "name": "Object_5"
    },
    {
      "mesh": 2,
      "name": "Object_6"
    },
    {
      "mesh": 3,
      "name": "Object_7"
    },
    {
      "children": [
        9
      ],
      "matrix": [
        1.0,
        0.0,
        0.0,
        0.0,
        0.0,
        1.0,
        0.0,
        0.0,
        0.0,
        0.0,
        1.0,
        0.0,
        13.644454002380371,
        0.1448962688446045,
        0.8791226744651794,
        1.0
      ],
      "name": "door_1_1"
    },
    {
      "mesh": 4,
      "name": "Object_9"
    },
    {
      "children": [
        11
      ],
      "matrix": [
        1.0,
        0.0,
        0.0,
        0.0,
        0.0,
        1.0,
        0.0,
        0.0,
        0.0,
        0.0,
        1.0,
        0.0,
        14.60953140258789,
        6.940364837646484,
        0.8633395433425903,
        1.0
      ],
      "name": "door2_2"
    },
    {
      "mesh": 5,
      "name": "Object_11"
    },
    {
      "children": [
        13
      ],
      "matrix": [
        0.25229182839393616,
        0.0,
        0.0,
        0.0,
        0.0,
        0.3391249179840088,
        0.0,
        0.0,
        0.0,
        0.0,
        0.25229182839393616,
        0.0,
        11.131550788879395,
        5.246532917022705,
        1.756824016571045,
        1.0
      ],
      "name": "Column_3"
    },
    {
      "mesh": 6,
      "name": "Object_13"
    },
    {
      "children": [
        15
      ],
      "matrix": [
        1.0,
        0.0,
        0.0,
        0.0,
        0.0,
        1.0,
        0.0,
        0.0,
        0.0,
        0.0,
        1.0,
        0.0,
        9.008634567260742,
        5.022080421447754,
        -0.7271034717559814,
        1.0
      ],
      "name": "Wood_4"
    },
    {
      "mesh": 7,
      "name": "Object_15"
    },
    {
      "children": [
        17
      ],
      "matrix": [
        3.871021032333374,
        0.0,
        0.0,
        0.0,
        0.0,
        3.871021032333374,
        0.0,
        0.0,
        0.0,
        0.0,
        3.871021032333374,
        0.0,
        15.335383415222168,
        13.606064796447754,
        -11.186439514160156,
        1.0
      ],
      "name": "Plane_5"
    },
    {
      "mesh": 8,
      "name": "Object_17"
    }
  ],
  "samplers": [
    {
      "magFilter": 9729,
      "minFilter": 9987,
      "wrapS": 10497,
      "wrapT": 10497
    }
  ],
  "scene": 0,
  "scenes": [
    {
      "name": "Sketchfab_Scene",
      "nodes": [
        0
      ]
    }
  ],
  "textures": [
    {
      "sampler": 0,
      "source": 0
    },
    {
      "sampler": 0,
      "source": 1
    },
    {
      "sampler": 0,
      "source": 2
    },
    {
      "sampler": 0,
      "source": 3
    },
    {
      "sampler": 0,
      "source": 4
    },
    {
      "sampler": 0,
      "source": 5
    }
  ]
}
